<svg height="682pt" viewBox="-21 -75 682.66669 682" width="682pt" xmlns="http://www.w3.org/2000/svg"><path d="m342.222656 220.085938v-42.734376h-44.425781v42.746094l22.210937 27.363282zm0 0"/><path d="m621.25 490.417969h-6.242188v-437.242188c0-.121093.007813-.238281.007813-.363281v-37.394531c0-10.359375-8.398437-18.75-18.75-18.75-10.359375 0-18.75 8.390625-18.75 18.75v18.640625h-23.09375v-18.640625c0-10.359375-8.390625-18.75-18.75-18.75-10.351563 0-18.75 8.390625-18.75 18.75v18.640625h-23.644531v-18.640625c0-10.359375-8.394532-18.75-18.75-18.75-10.351563 0-18.75 8.390625-18.75 18.75v18.640625h-.003906v38.378906h-55.867188v-19.625c0-10.351562-8.398438-18.75-18.75-18.75-10.355469 0-18.75 8.398438-18.75 18.75v19.625h-23.652344v-19.625c0-10.351562-8.394531-18.75-18.75-18.75-10.351562 0-18.75 8.398438-18.75 18.75v19.625h-23.644531v-19.625c0-10.351562-8.394531-18.75-18.75-18.75-10.359375 0-18.75 8.398438-18.75 18.75v19.625h-55.3125v-19.5c0-.039062.003906-.085938.003906-.125v-37.394531c0-10.359375-8.398437-18.75-18.75-18.75-10.355469 0-18.75 8.390625-18.75 18.75v18.640625h-23.652343v-18.640625c0-10.359375-8.394532-18.75-18.75-18.75-10.351563 0-18.75 8.390625-18.75 18.75v18.640625h-23.648438v-18.640625c0-10.359375-8.394531-18.75-18.75-18.75s-18.75 8.390625-18.75 18.75v18.640625h-.003906v456.359375h-6.246094c-10.355469 0-18.75 8.390625-18.75 18.75 0 10.355469 8.394531 18.75 18.75 18.75h602.5c10.355469 0 18.75-8.394531 18.75-18.75 0-10.359375-8.394531-18.75-18.75-18.75zm-497.601562-259.15625c0 10.351562-8.390626 18.75-18.75 18.75-10.351563 0-18.75-8.398438-18.75-18.75v-72.660157c0-10.351562 8.398437-18.75 18.75-18.75 10.359374 0 18.75 8.398438 18.75 18.75zm135.210937-91.410157h122.296875c10.351562 0 18.75 8.398438 18.75 18.75 0 10.359376-8.398438 18.75-18.75 18.75h-1.433594v48.445313c0 4.902344-1.699218 9.6875-4.792968 13.492187l-39.03125 48.09375c-3.902344 4.816407-9.703126 7.578126-15.902344 7.578126-6.1875 0-11.988282-2.761719-15.890625-7.578126l-39.03125-48.09375c-3.078125-3.804687-4.777344-8.589843-4.777344-13.492187v-48.445313h-1.4375c-10.363281 0-18.75-8.390624-18.75-18.75 0-10.351562 8.386719-18.75 18.75-18.75zm159.546875 350.566407h-37.5v-77.804688c0-35.789062-31.457031-48.539062-60.898438-48.539062-29.4375 0-60.886718 12.75-60.886718 48.539062v77.804688h-37.5v-77.804688c0-26.816406 10.550781-49.261719 30.496094-64.925781 17.605468-13.8125 41.082031-21.113281 67.890624-21.113281 26.828126 0 50.300782 7.300781 67.902344 21.113281 19.945313 15.664062 30.496094 38.109375 30.496094 64.925781zm136.011719-259.15625c0 10.351562-8.382813 18.75-18.75 18.75-10.347657 0-18.75-8.398438-18.75-18.75v-72.660157c0-10.351562 8.402343-18.75 18.75-18.75 10.367187 0 18.75 8.398438 18.75 18.75zm0 0"/></svg>