<svg height="512pt" viewBox="0 -20 512.00005 512" width="512pt" xmlns="http://www.w3.org/2000/svg"><path d="m264.507812 30h128.992188c8.285156 0 15-6.714844 15-15s-6.714844-15-15-15h-128.992188c-8.285156 0-15 6.714844-15 15s6.714844 15 15 15zm0 0"/><path d="m365 83.699219c0 8.28125 6.714844 15 15 15h76.496094c8.285156 0 15-6.71875 15-15 0-8.285157-6.714844-15-15-15h-76.496094c-8.285156 0-15 6.714843-15 15zm0 0"/><path d="m55.503906 64.628906h76.496094c8.28125 0 15-6.714844 15-15 0-8.28125-6.71875-15-15-15h-76.496094c-8.285156 0-15 6.71875-15 15 0 8.285156 6.714844 15 15 15zm0 0"/><path d="m510.066406 449.632812-121.1875-214.960937c-6.394531-11.347656-17.5625-18.101563-29.902344-18.101563-.066406 0-.128906 0-.195312 0-12.433594.070313-23.625 6.980469-29.9375 18.484376l-.300781.550781 112.351562 199.296875c6.417969 11.386718 7.472657 24.984375 3.207031 37.097656h52.898438c5.332031 0 10.261719-2.832031 12.953125-7.433594 2.6875-4.601562 2.730469-10.289062.113281-14.933594zm0 0"/><path d="m163.40625 310.074219 32.265625-58.359375c2.632813-4.761719 7.632813-7.726563 13.070313-7.746094h.054687c5.417969 0 10.417969 2.921875 13.074219 7.648438l10.050781 17.871093 40.09375-73.058593-36.152344-64.128907c-6.394531-11.34375-17.5625-18.097656-29.902343-18.097656-.066407 0-.132813 0-.195313 0-12.4375.070313-23.625 6.980469-29.9375 18.484375l-55.410156 100.988281zm0 0"/><path d="m416.625 455.660156c-.007812-.101562-.015625-.210937-.027344-.3125-.046875-.414062-.109375-.828125-.1875-1.238281-.027344-.132813-.058594-.261719-.089844-.390625-.066406-.300781-.144531-.601562-.230468-.898438-.039063-.136718-.074219-.273437-.117188-.410156-.121094-.367187-.253906-.734375-.402344-1.09375-.058593-.144531-.125-.285156-.1875-.429687-.117187-.257813-.238281-.515625-.371093-.769531-.066407-.128907-.132813-.261719-.203125-.386719-.019532-.035157-.03125-.066407-.050782-.097657l-55.085937-97.714843c-.003906-.003907-.003906-.003907-.003906-.007813l-70.3125-124.722656-44.121094 80.402344c-2.621094 4.773437-7.625 7.753906-13.074219 7.78125-.023437 0-.050781 0-.078125 0-5.417969 0-10.414062-2.921875-13.074219-7.644532l-10.097656-17.957031-32.261718 58.355469c-2.632813 4.761719-7.632813 7.722656-13.070313 7.742188-.019531 0-.039063 0-.058594 0-5.414062 0-10.414062-2.917969-13.070312-7.644532l-47.027344-83.574218-101.570313 185.136718c-2.550781 4.648438-2.460937 10.292969.238282 14.855469 2.703125 4.5625 7.609375 7.359375 12.910156 7.359375h386.695312c.453126 0 .902344-.027344 1.347657-.066406.117187-.011719.238281-.023438.355469-.035156.421874-.050782.839843-.109376 1.253906-.195313.097656-.019531.191406-.042969.289062-.066406.324219-.070313.644532-.152344.960938-.246094.144531-.042969.292968-.085937.441406-.132813.371094-.121093.738281-.253906 1.097656-.402343.117188-.050781.230469-.109375.351563-.160157.277343-.125.550781-.253906.820312-.394531.128907-.066406.257813-.132812.382813-.203125.351562-.195312.695312-.402344 1.027344-.625.070312-.046875.140624-.101562.210937-.148437.289063-.203125.574219-.414063.847656-.636719.085938-.066406.171875-.132812.253907-.203125.324218-.273437.640624-.558594.941406-.859375.03125-.03125.058594-.0625.089844-.09375.273437-.273438.53125-.5625.78125-.859375.074218-.082031.140624-.167969.210937-.25.265625-.328125.519531-.664063.757813-1.015625.03125-.042969.054687-.085938.082031-.128906.152343-.230469.304687-.46875.449219-.710938.042968-.078125.082031-.15625.125-.234375.070312-.128906.140624-.257812.210937-.386719.148437-.292968.292969-.585937.421875-.882812.050781-.113281.105469-.226562.152344-.339844.144531-.351562.269531-.703125.386718-1.058594.046876-.144531.089844-.289062.132813-.433593.101563-.34375.191406-.6875.265625-1.035157.019531-.089843.042969-.175781.058594-.265624.082031-.402344.140625-.808594.1875-1.214844.011718-.113282.023437-.226563.035156-.339844.042969-.445312.066406-.886719.066406-1.332031 0-.011719.003906-.027344.003906-.042969 0-.039062-.007812-.082031-.007812-.121094-.003906-.40625-.027344-.8125-.0625-1.21875zm0 0"/></svg>